# xmcd
#
# Track frame offsets:
#	150
#	17063
#	36346
#	54312
#	69902
#	88585
#	105417
#	118757
#	138628
#	154773
#	170777
#	190039
#	210450
#	226598
#	244162
#
# Disc length: 3491 seconds
#
# Revision: 0
# Processed by: cddbd v1.5.2PL0 Copyright (c) Steve Scherf et al.
# Submitted via: audiograbber 1.83.01
#
DISCID=c20da10f
DTITLE=Various Artist - CB60401
DYEAR=2009
DGENRE=Karaoke
TTITLE0=Montgomery Gentry - One In Every Crowd
TTITLE1=Rascal Flatts - Here Comes Goodbye
TTITLE2=Lady Antebellum - I Run To You
TTITLE3=Phil Vassar - Prayer Of A Common Man
TTITLE4=Chuck Wicks - Man Of The House
TTITLE5=Holly Williams - Keep The Change
TTITLE6=Eric Church - Love Your Love The Most
TTITLE7=Kid Rock - Blue Jeans And A Rosary
TTITLE8=Danielle Peck - Can't Behave
TTITLE9=Darryl Worley - Sounds Like Life To Me
TTITLE10=David Nail - Red Light
TTITLE11=Dolly Parton - Drives Me Crazy
TTITLE12=Jeff Bates - One Thing
TTITLE13=Jonathan Singleton and The Grove - Livin' In Paradise
TTITLE14=Jessica Simpson - Pray Out Loud
EXTD=
EXTT0=
EXTT1=
EXTT2=
EXTT3=
EXTT4=
EXTT5=
EXTT6=
EXTT7=
EXTT8=
EXTT9=
EXTT10=
EXTT11=
EXTT12=
EXTT13=
EXTT14=
PLAYORDER=
